<svg xmlns="http://www.w3.org/2000/svg">
    <defs>
      <symbol id="copyright" viewBox="0 0 64 64">
        <g>
          <path
          d="M32 2C18.214 2 7 13.216 7 27s11.215 25 25 25c13.786 0 25-11.216 25-25S45.785 2 32 2m0 45.001c-11.029 0-20.001-8.972-20.001-20.001C11.999 15.973 20.97 7.001 32 7.001c11.028 0 19.999 8.972 19.999 19.999C51.998 38.029 43.027 47.001 32 47.001"
          fill="currentColor"
        /><path
          d="M25.414 19.337a10.49 10.49 0 0 1 3.26-2.338a9.421 9.421 0 0 1 3.994-.86c1.749 0 3.354.417 4.817 1.251a10.504 10.504 0 0 1 3.586 3.342l3.564-2.665a15.009 15.009 0 0 0-5.143-4.426C37.43 12.547 35.154 12 32.667 12c-2.049 0-3.975.396-5.777 1.19a15.067 15.067 0 0 0-4.713 3.215a15.205 15.205 0 0 0-3.176 4.756c-.779 1.814-1.168 3.763-1.168 5.84c0 2.075.389 4.022 1.168 5.841a15.147 15.147 0 0 0 3.176 4.752a15.095 15.095 0 0 0 4.713 3.219c1.803.79 3.729 1.187 5.777 1.187c2.487 0 4.762-.547 6.825-1.642a14.954 14.954 0 0 0 5.143-4.426l-3.564-2.661a10.544 10.544 0 0 1-3.586 3.339c-1.463.833-3.068 1.25-4.817 1.25a9.406 9.406 0 0 1-3.994-.86a10.474 10.474 0 0 1-3.26-2.338c-.928-.98-1.666-2.131-2.213-3.441s-.82-2.719-.82-4.22c0-1.504.273-2.911.82-4.222s1.285-2.458 2.213-3.442"
          fill="currentColor"
        />
        </g>
      </symbol>
       <symbol id="arrowDown" viewBox="0 0 24 24">
        <g>
          <path
          d="M5.70711 9.71069C5.31658 10.1012 5.31658 10.7344 5.70711 11.1249L10.5993 16.0123C11.3805 16.7927 12.6463 16.7924 13.4271 16.0117L18.3174 11.1213C18.708 10.7308 18.708 10.0976 18.3174 9.70708C17.9269 9.31655 17.2937 9.31655 16.9032 9.70708L12.7176 13.8927C12.3271 14.2833 11.6939 14.2832 11.3034 13.8927L7.12132 9.71069C6.7308 9.32016 6.09763 9.32016 5.70711 9.71069Z"
          fill="currentColor"
        />
        </g>
      </symbol>
       <symbol id="arrowUp" viewBox="0 0 24 24">
        <g>
          <path
          d="M18.2929 15.2893C18.6834 14.8988 18.6834 14.2656 18.2929 13.8751L13.4007 8.98766C12.6195 8.20726 11.3537 8.20757 10.5729 8.98835L5.68257 13.8787C5.29205 14.2692 5.29205 14.9024 5.68257 15.2929C6.0731 15.6835 6.70626 15.6835 7.09679 15.2929L11.2824 11.1073C11.673 10.7168 12.3061 10.7168 12.6966 11.1073L16.8787 15.2893C17.2692 15.6798 17.9024 15.6798 18.2929 15.2893Z"
          fill="currentColor"
        />
        </g>
      </symbol>
      <symbol id="arrowPrev" viewBox="0 0 24 24">
        <g>
        <path
          d="M14.2893 5.70708C13.8988 5.31655 13.2657 5.31655 12.8751 5.70708L7.98768 10.5993C7.20729 11.3805 7.2076 12.6463 7.98837 13.427L12.8787 18.3174C13.2693 18.7079 13.9024 18.7079 14.293 18.3174C14.6835 17.9269 14.6835 17.2937 14.293 16.9032L10.1073 12.7175C9.71678 12.327 9.71678 11.6939 10.1073 11.3033L14.2893 7.12129C14.6799 6.73077 14.6799 6.0976 14.2893 5.70708Z"
          fill="currentColor"
        />
        </g>
      </symbol>
      <symbol id="arrowNext" viewBox="0 0 24 24">
        <g>
          <path d="M4 12H20M20 12L16 8M20 12L16 16" stroke="currentColor" stroke-width="2" stroke-linecap="round" stroke-linejoin="round"/>
        </g>
      </symbol>
      <symbol id="arrowBlank" viewBox="0 0 24 24" fill="none" >
        <g>
          <path d="M20 4L12 12M20 4V8.5M20 4H15.5M19 12.5V16.8C19 17.9201 19 18.4802 18.782 18.908C18.5903 19.2843 18.2843 19.5903 17.908 19.782C17.4802 20 16.9201 20 15.8 20H7.2C6.0799 20 5.51984 20 5.09202 19.782C4.71569 19.5903 4.40973 19.2843 4.21799 18.908C4 18.4802 4 17.9201 4 16.8V8.2C4 7.0799 4 6.51984 4.21799 6.09202C4.40973 5.71569 4.71569 5.40973 5.09202 5.21799C5.51984 5 6.07989 5 7.2 5H11.5" stroke="currentColor" stroke-width="2" stroke-linecap="round" stroke-linejoin="round"/>
        </g>
      </symbol>
    </defs>
</svg>